<svg xmlns="http://www.w3.org/2000/svg" xmlns:xlink="http://www.w3.org/1999/xlink" version="1.1" x="0px" y="0px" viewBox="0 0 100 125" enable-background="new 0 0 100 100" xml:space="preserve"><g><path fill="none" d="M36.995,62.886c-2.281,0.792-3.761-0.138-4.537-2.082c-1.156,1.466-0.894,4.209-0.022,5.684   c1.218,2.058,3.263,3.517,5.58,4.118c4.449,1.153,9.923-1.052,10.287-6.072c-1.364-0.225-2.586-0.927-3.174-2.199   c-0.403-0.872-0.508-1.826-0.393-2.762C42.074,59.121,39.38,62.058,36.995,62.886z M39.458,69.581   c-0.695,0.126-1.444,0.058-2.091-0.237c-0.269-0.123-0.136-0.572,0.15-0.554c0.619,0.04,1.247,0.128,1.862,0.207   C39.681,69.036,39.819,69.516,39.458,69.581z M45.501,66.924c0.35-0.132,0.521,0.386,0.242,0.573   c-1.177,0.787-2.39,1.669-3.733,2.155c-0.188,0.068-0.363-0.217-0.201-0.345C42.963,68.396,44.114,67.447,45.501,66.924z"/><path fill="none" d="M49.175,63.467c1.611,0.057,3.35-0.499,3.834-1.997c0.519-1.606,0.067-3.576-1.089-4.82   c-1.085-1.168-2.058-1.27-3.252-1.058c-1.57,0.428-2.466,1.766-2.711,3.345c-0.207,1.331-0.295,3.366,1.148,4.065   c0.432,0.209,0.97,0.356,1.545,0.425C48.817,63.359,49.015,63.375,49.175,63.467z M49.235,62c0.441-0.116,0.86-0.376,1.149-0.73   c0.176-0.217,0.475,0.059,0.365,0.282c-0.304,0.618-0.768,0.902-1.442,0.981C48.998,62.57,48.946,62.076,49.235,62z"/><path fill="none" d="M37.035,47.122c9.76-2.974,19.739-1.755,29.66-0.401c2.142,0.292,6.796,1.948,7.412-1.099   c0.345-1.707,0.615-4.012-0.478-5.523c-1.318-1.821-3.556-2.53-5.663-2.993c-2.814-0.619-5.664-1.062-8.54-1.253   c-9.82-0.655-19.98,0.087-29.464,2.81c-0.04,0.074-0.107,0.132-0.21,0.151c-0.397,0.076-0.819,0.172-1.246,0.286   c-0.327,0.102-0.656,0.199-0.981,0.306c-0.008,0.002-0.013,0.001-0.021,0.003c-1.299,0.472-2.507,1.213-3.074,2.455   c-0.912,2.001-0.15,4.87,1.588,6.236C29.181,50.585,33.751,48.123,37.035,47.122z M71.716,44.516   c-0.284,0.076-0.542,0.132-0.644,0.441c-0.105,0.321-0.577,0.191-0.505-0.139c0.124-0.565,0.582-0.886,1.149-0.8   C71.979,44.057,71.947,44.454,71.716,44.516z M69.187,43.874c0.54-0.513,1.225-0.993,1.897-1.313   c0.289-0.137,0.627,0.227,0.36,0.467c-0.557,0.501-1.254,0.953-1.94,1.257C69.248,44.399,68.955,44.094,69.187,43.874z"/><path fill="none" d="M57.038,34.387c3.25,0.134,6.515,0.424,9.707,1.077c0.992,0.203,2.049,0.404,3.074,0.698   c-1.013-8.054-6.745-15.918-13.623-19.989c-3.296-1.95-6.874-3.225-10.626-3.963c-3.653-0.718-7.318-0.746-10.994-1.18   c0.006,1.827-0.724,3.606-2.393,4.513c-0.647,0.604-1.474,1.064-2.355,1.368c1.321,0.834,1.456,3.147,1.455,4.505   c-0.002,2.299-0.381,4.572-0.764,6.833c-0.357,2.107-0.409,4.251-0.77,6.358c-0.162,0.943-0.341,2.123-0.796,3.099   c2.869-1.042,5.846-1.744,8.871-2.177C44.133,34.627,50.666,34.125,57.038,34.387z M66.491,33.111   c-0.374,0.435-0.745,0.859-0.971,1.393c-0.147,0.346-0.717,0.097-0.603-0.254c0.218-0.67,0.579-1.266,1.194-1.631   C66.431,32.429,66.715,32.85,66.491,33.111z M65.058,27.994c0.125,0.248,0.212,0.482,0.235,0.759   c0.023,0.277-0.362,0.342-0.494,0.134c-0.135-0.213-0.199-0.433-0.243-0.681C64.505,27.917,64.908,27.697,65.058,27.994z    M64.348,32.167c0.335-0.225,0.68-0.435,1.093-0.431c0.35,0.003,0.412,0.423,0.165,0.608c-0.442,0.33-1.01,0.503-1.485,0.763   c-0.199,0.109-0.419-0.068-0.37-0.285C63.82,32.515,64.102,32.333,64.348,32.167z M58.067,20.838   c2.464,0.657,4.183,3.182,5.384,5.267c0.182,0.316-0.275,0.696-0.518,0.4c-1.603-1.954-2.728-4.001-5.075-5.17   C57.577,21.194,57.776,20.76,58.067,20.838z"/><path fill="none" d="M67.048,49.378c-0.036-0.407-0.185-0.848-0.256-1.274c-1.354-0.207-2.708-0.414-4.065-0.591   c-6.357-0.829-12.911-1.532-19.293-0.526c-2.978,0.469-5.794,1.306-8.652,2.235c-0.747,0.243-1.519,0.492-2.302,0.698   c-0.296,1.725-0.447,3.414-0.347,5.175c0.08,1.408,0.468,2.77,0.637,4.141c0.224,0.03,0.436,0.191,0.5,0.407   c1.812,6.095,7.787-2.236,11.647-0.962c0.367-1.326,1.156-2.547,2.163-3.356c1.602-1.287,3.746-1.533,5.578,0.49   c0.545,0.601,1.012,1.358,1.334,2.174c2.058-0.486,3.989-0.175,5.921,0.743c1.452,0.69,4.534,2.593,6.009,1.193   c-0.007-0.046-0.018-0.09-0.011-0.143c0.288-2.296,0.828-4.546,1.036-6.86C67.052,51.748,67.153,50.554,67.048,49.378z    M43.206,54.751c-0.072,0.309-0.514,0.53-0.788,0.321c-0.765-0.584-0.939-1.712-2.182-1.357c-0.958,0.274-1.621,0.901-2.115,1.746   c-0.267,0.456-0.962,0.149-0.839-0.354c0.347-1.413,1.714-2.589,3.157-2.741C41.71,52.233,43.556,53.258,43.206,54.751z    M60.422,55.71c-0.535-0.772-0.919-1.828-2.054-1.73c-0.951,0.082-1.454,0.776-2.205,1.24c-0.364,0.225-0.778-0.143-0.688-0.529   c0.297-1.277,1.996-2.287,3.271-2.121c1.447,0.188,2.733,1.322,2.688,2.866C61.418,55.999,60.725,56.147,60.422,55.71z"/><path fill="none" d="M32.842,9.356c-1.134-3.257-4.798-4.17-7.093-1.643c-1.807,1.99-2.879,6.726,0.28,8.117   C30.007,17.583,34.212,13.293,32.842,9.356z M30.822,10.629c-0.207-1.151-0.777-2.037-1.746-2.687   c-0.359-0.24-0.05-0.76,0.336-0.575c1.258,0.604,2.067,1.772,1.988,3.183C31.382,10.865,30.883,10.971,30.822,10.629z    M31.076,12.826c-0.005-0.382,0.067-0.742,0.184-1.106c0.106-0.33,0.59-0.195,0.517,0.143c-0.075,0.348-0.122,0.687-0.238,1.026   C31.454,13.137,31.08,13.1,31.076,12.826z"/><path fill="none" d="M59.318,69.068c4.177-0.855,6.265-4.021,6.819-7.881c-0.889,0.454-1.972,0.459-3.062,0.139   c-3.083-0.905-5.4-3.06-8.779-2.357c0.361,1.571,0.124,3.218-1.166,4.34c-0.615,0.534-1.427,0.898-2.294,1.106   c0.628,0.854,1.007,2.187,1.539,2.939C53.848,69.439,57.012,69.54,59.318,69.068z M60.684,66.092   c0.138,0.017,0.276,0.034,0.414,0.052c0.328,0.041,0.328,0.47,0,0.511c-0.138,0.017-0.276,0.034-0.414,0.052   C60.289,66.755,60.289,66.042,60.684,66.092z M54.065,66.761c0.887-0.054,1.659,0.22,2.507,0.431   c1.13,0.281,2.098,0.077,3.135-0.429c0.344-0.168,0.622,0.301,0.3,0.513c-0.879,0.58-1.854,1.067-2.936,0.838   c-1.046-0.221-2.015-0.655-3.075-0.846C53.695,67.215,53.789,66.778,54.065,66.761z"/><path fill="none" d="M74.39,53.225c-0.539-1.574-1.642-2.839-1.968-4.432c-0.375,0.025-0.765,0.011-1.158-0.04   c-1.158-0.15-2.314-0.323-3.47-0.499c0.913,2.225-0.036,8.424-0.57,10.862c0.176,0.106,0.305,0.286,0.295,0.514   c-0.197,4.892-2.597,9.777-7.882,10.595c-2.053,0.318-4.641,0.489-6.51-0.635c-0.88-0.529-1.533-1.222-1.982-2.154   c-0.128-0.266-1.108-2.575-1.379-2.855c-0.109,0.008-0.217,0.03-0.326,0.032c-0.165,2.691-1.985,5.154-4.368,6.398   c-2.744,1.433-5.589,1.324-8.459,0.275c-2.603-0.952-5.202-3.132-5.756-5.968c-0.367-1.878-0.361-4.008,0.934-5.439   c-0.895-1.117-0.803-3.548-0.806-4.785c-0.003-1.459-0.094-3.449,0.481-4.938c-0.706,0.139-1.419,0.224-2.128,0.213   c-1-0.015-1.961-0.257-2.827-0.671c-0.006,0.045-0.02,0.091-0.047,0.135c0.141-0.232-0.014,0.681-0.051,0.884   c-0.148,0.817-0.289,1.635-0.433,2.453c-0.366,2.088-0.735,4.177-1.065,6.271c-0.812,5.158-0.906,10.441,1.43,15.288   c2.988,6.2,8.349,11.113,14.869,13.363c3.292,1.136,9.188,1.669,10.124,5.741c0.014-0.001,0.021-0.012,0.036-0.011   c0.258,0.018,1.87-2.045,2.128-2.254c0.945-0.768,1.92-1.477,2.998-2.052c2.542-1.355,5.145-2.602,7.653-4.021   c3.995-2.261,7.816-4.979,9.688-9.339c1.969-4.587,2.324-10.25,1.988-15.183C75.653,58.383,75.235,55.693,74.39,53.225z    M28.082,55.726c-0.381,0.092-0.522-0.452-0.16-0.58c0.368-0.13,0.559-0.452,0.649-0.816c0.071-0.291,0.546-0.233,0.527,0.071   C29.057,55.055,28.743,55.566,28.082,55.726z M29.037,53.206c-0.341,0.025-0.616,0.335-0.826,0.576   c-0.238,0.274-0.583-0.075-0.462-0.356c0.239-0.553,0.743-0.952,1.355-0.715C29.37,52.813,29.329,53.184,29.037,53.206z    M69.296,50.852c0.203-0.343,0.425-0.705,0.716-0.981c0.227-0.216,0.543,0.055,0.416,0.321c-0.163,0.343-0.381,0.659-0.551,1   c-0.159,0.318-0.274,0.659-0.516,0.925c-0.163,0.178-0.482,0.041-0.475-0.197C68.9,51.528,69.101,51.182,69.296,50.852z    M69.455,79.393c-1.19,2.304-3.993,3.947-6.417,4.665c-0.317,0.094-0.527-0.385-0.227-0.538c2.217-1.127,4.529-2.448,6.064-4.466   C69.132,78.716,69.659,78.998,69.455,79.393z M69.361,54.598c-0.173,0.211-0.565-0.015-0.465-0.27   c0.507-1.296,1.156-2.637,2.142-3.637c0.254-0.257,0.608,0.12,0.389,0.388C70.554,52.151,70.235,53.537,69.361,54.598z    M71.901,75.648c-0.303,0.54-0.469,1.147-0.788,1.678c-0.179,0.297-0.617,0.162-0.632-0.171c-0.031-0.647,0.583-1.388,0.959-1.863   C71.652,75.023,72.059,75.367,71.901,75.648z"/><path d="M76.26,55.34c-0.308-1.225-0.645-2.426-1.136-3.592c-0.484-1.148-1.34-1.99-1.598-3.187c0.723-0.276,1.31-0.806,1.616-1.71   c1.166-3.442,0.789-7.213-2.354-9.377c-0.474-0.326-0.991-0.59-1.53-0.814c-0.823-8.266-6.189-15.873-12.838-20.605   c-6.539-4.653-15.94-6.563-23.866-5.569c-0.096-1.164-0.48-2.314-1.108-3.237c-2.243-3.295-6.805-2.742-9.104,0.177   c-2.116,2.688-2.461,8.463,1.572,9.685c0.996,0.302,2.186,0.276,3.327-0.018c1.784,3.449,0.642,7.551,0.022,11.207   c-0.236,1.393-0.329,2.8-0.474,4.204c-0.164,1.585-0.269,4.615-1.712,5.656c-0.185,0.133-0.257,0.315-0.262,0.494   c-2.186,0.784-3.878,2.45-3.978,5.088c-0.092,2.437,1.185,4.476,3.062,5.625c-0.61,0.445-0.686,1.83-0.828,2.45   c-0.487,2.132-0.868,4.292-1.251,6.444c-0.822,4.625-1.086,8.936,0.095,13.57c1.513,5.938,5.851,11.158,10.86,14.531   c2.468,1.662,5.318,2.806,8.17,3.609c3.095,0.87,6.166,1.432,7.539,4.691c0.197,0.467,1.021,0.477,0.971-0.131   c-0.001-0.018-0.007-0.034-0.009-0.052c0.171,0.053,0.332,0.016,0.546-0.109c0.965-0.565,1.81-1.708,2.715-2.383   c2.605-1.942,5.837-3.143,8.707-4.639c4.299-2.242,8.309-4.847,10.828-9.102c2.497-4.217,2.828-9.596,2.946-14.372   C77.262,60.989,76.963,58.135,76.26,55.34z M26.028,15.831c-3.158-1.391-2.087-6.128-0.28-8.117   c2.296-2.527,5.959-1.614,7.093,1.643C34.212,13.293,30.007,17.583,26.028,15.831z M29.748,34.608   c0.361-2.107,0.413-4.25,0.77-6.358c0.383-2.261,0.762-4.534,0.764-6.833c0.001-1.359-0.133-3.672-1.455-4.505   c0.882-0.305,1.709-0.764,2.355-1.368c1.669-0.907,2.398-2.686,2.393-4.513c3.676,0.434,7.342,0.462,10.994,1.18   c3.752,0.738,7.33,2.012,10.626,3.963c6.878,4.07,12.61,11.935,13.623,19.989c-1.025-0.294-2.082-0.495-3.074-0.698   c-3.192-0.652-6.456-0.943-9.707-1.077c-6.373-0.262-12.906,0.24-19.215,1.143c-3.025,0.433-6.002,1.135-8.871,2.177   C29.407,36.731,29.586,35.551,29.748,34.608z M24.43,41.864c0.566-1.243,1.775-1.984,3.074-2.455c0.007-0.002,0.013,0,0.021-0.003   c0.325-0.107,0.654-0.204,0.981-0.306c0.426-0.113,0.849-0.21,1.246-0.286c0.103-0.02,0.171-0.078,0.21-0.151   c9.484-2.723,19.644-3.465,29.464-2.81c2.876,0.192,5.726,0.635,8.54,1.253c2.106,0.463,4.345,1.172,5.663,2.993   c1.093,1.511,0.823,3.816,0.478,5.523c-0.616,3.047-5.27,1.391-7.412,1.099c-9.921-1.355-19.9-2.574-29.66,0.401   c-3.284,1.001-7.854,3.463-11.016,0.978C24.28,46.734,23.518,43.865,24.43,41.864z M45.13,62.334   c0.588,1.272,1.81,1.974,3.174,2.199c-0.364,5.02-5.838,7.225-10.287,6.072c-2.317-0.6-4.362-2.059-5.58-4.118   c-0.873-1.475-1.135-4.217,0.022-5.684c0.775,1.944,2.256,2.874,4.537,2.082c2.385-0.828,5.079-3.766,7.742-3.314   C44.621,60.508,44.727,61.462,45.13,62.334z M47.105,63.003c-1.443-0.7-1.355-2.734-1.148-4.065   c0.245-1.579,1.141-2.917,2.711-3.345c1.194-0.212,2.167-0.11,3.252,1.058c1.156,1.244,1.609,3.214,1.089,4.82   c-0.484,1.498-2.223,2.053-3.834,1.997c-0.161-0.092-0.358-0.108-0.525-0.039C48.074,63.359,47.537,63.212,47.105,63.003z    M53.13,63.309c1.291-1.122,1.527-2.769,1.166-4.34c3.379-0.703,5.696,1.453,8.779,2.357c1.09,0.32,2.173,0.315,3.062-0.139   c-0.554,3.86-2.642,7.025-6.819,7.881c-2.306,0.472-5.47,0.371-6.944-1.713c-0.531-0.752-0.911-2.085-1.539-2.939   C51.704,64.208,52.515,63.843,53.13,63.309z M65.921,59.923c-1.475,1.4-4.556-0.503-6.009-1.193   c-1.932-0.918-3.863-1.229-5.921-0.743c-0.321-0.816-0.789-1.573-1.334-2.174c-1.832-2.023-3.976-1.777-5.578-0.49   c-1.007,0.809-1.796,2.03-2.163,3.356c-3.86-1.274-9.835,7.057-11.647,0.962c-0.064-0.215-0.276-0.377-0.5-0.407   c-0.169-1.371-0.557-2.733-0.637-4.141c-0.1-1.761,0.051-3.45,0.347-5.175c0.784-0.206,1.556-0.455,2.302-0.698   c2.859-0.929,5.674-1.766,8.652-2.235c6.382-1.006,12.936-0.303,19.293,0.526c1.357,0.177,2.711,0.384,4.065,0.591   c0.071,0.426,0.219,0.867,0.256,1.274c0.104,1.176,0.004,2.37-0.102,3.543c-0.209,2.314-0.748,4.563-1.036,6.86   C65.903,59.834,65.914,59.877,65.921,59.923z M73.842,76.156c-1.871,4.36-5.693,7.078-9.688,9.339   c-2.507,1.419-5.111,2.666-7.653,4.021c-1.078,0.575-2.053,1.283-2.998,2.052c-0.258,0.21-1.87,2.273-2.128,2.254   c-0.015-0.001-0.022,0.01-0.036,0.011c-0.936-4.071-6.832-4.605-10.124-5.741c-6.52-2.249-11.88-7.163-14.869-13.363   c-2.336-4.847-2.242-10.13-1.43-15.288c0.33-2.094,0.699-4.183,1.065-6.271c0.143-0.818,0.285-1.636,0.433-2.453   c0.037-0.203,0.191-1.117,0.051-0.884c0.027-0.045,0.041-0.09,0.047-0.135c0.866,0.414,1.826,0.656,2.827,0.671   c0.71,0.011,1.422-0.074,2.128-0.213c-0.575,1.489-0.484,3.479-0.481,4.938c0.003,1.237-0.089,3.668,0.806,4.785   c-1.294,1.432-1.3,3.561-0.934,5.439c0.554,2.836,3.153,5.017,5.756,5.968c2.869,1.049,5.715,1.158,8.459-0.275   c2.383-1.244,4.203-3.707,4.368-6.398c0.109-0.002,0.217-0.025,0.326-0.032c0.271,0.28,1.251,2.589,1.379,2.855   c0.448,0.932,1.102,1.625,1.982,2.154c1.869,1.124,4.458,0.952,6.51,0.635c5.285-0.818,7.685-5.702,7.882-10.595   c0.009-0.229-0.119-0.409-0.295-0.514c0.534-2.438,1.483-8.637,0.57-10.862c1.156,0.176,2.312,0.349,3.47,0.499   c0.393,0.051,0.783,0.065,1.158,0.04c0.326,1.592,1.428,2.857,1.968,4.432c0.846,2.468,1.264,5.158,1.441,7.748   C76.167,65.906,75.811,71.569,73.842,76.156z"/><path d="M69.361,52.116c0.242-0.265,0.357-0.607,0.516-0.925c0.17-0.34,0.388-0.657,0.551-1c0.127-0.267-0.189-0.537-0.416-0.321   c-0.291,0.276-0.513,0.638-0.716,0.981c-0.195,0.33-0.396,0.677-0.409,1.068C68.879,52.157,69.199,52.295,69.361,52.116z"/><path d="M71.039,50.691c-0.986,1-1.636,2.341-2.142,3.637c-0.1,0.256,0.291,0.481,0.465,0.27c0.873-1.062,1.193-2.447,2.066-3.519   C71.647,50.811,71.293,50.434,71.039,50.691z"/><path d="M29.104,52.711c-0.612-0.237-1.116,0.162-1.355,0.715c-0.122,0.282,0.224,0.63,0.462,0.356   c0.21-0.241,0.485-0.551,0.826-0.576C29.329,53.184,29.37,52.813,29.104,52.711z"/><path d="M28.571,54.33c-0.089,0.364-0.28,0.685-0.649,0.816c-0.362,0.128-0.221,0.672,0.16,0.58   c0.661-0.159,0.975-0.671,1.016-1.324C29.117,54.097,28.643,54.039,28.571,54.33z"/><path d="M69.504,44.286c0.686-0.304,1.383-0.755,1.94-1.257c0.266-0.24-0.072-0.604-0.36-0.467   c-0.672,0.319-1.356,0.799-1.897,1.313C68.955,44.094,69.248,44.399,69.504,44.286z"/><path d="M70.567,44.817c-0.072,0.33,0.399,0.46,0.505,0.139c0.101-0.309,0.359-0.365,0.644-0.441c0.231-0.062,0.263-0.459,0-0.499   C71.15,43.932,70.691,44.252,70.567,44.817z"/><path d="M40.439,52.366c-1.443,0.152-2.81,1.328-3.157,2.741c-0.123,0.503,0.572,0.81,0.839,0.354   c0.494-0.845,1.157-1.472,2.115-1.746c1.243-0.355,1.417,0.773,2.182,1.357c0.274,0.209,0.716-0.011,0.788-0.321   C43.556,53.258,41.71,52.233,40.439,52.366z"/><path d="M58.746,52.57c-1.275-0.166-2.974,0.844-3.271,2.121c-0.09,0.386,0.324,0.754,0.688,0.529   c0.751-0.464,1.255-1.158,2.205-1.24c1.135-0.098,1.519,0.958,2.054,1.73c0.303,0.437,0.996,0.289,1.012-0.274   C61.478,53.892,60.193,52.758,58.746,52.57z"/><path d="M64.121,33.107c0.475-0.26,1.043-0.433,1.485-0.763c0.248-0.185,0.185-0.605-0.165-0.608   c-0.414-0.004-0.758,0.206-1.093,0.431c-0.246,0.165-0.529,0.348-0.598,0.656C63.702,33.039,63.922,33.217,64.121,33.107z"/><path d="M64.917,34.25c-0.115,0.351,0.456,0.6,0.603,0.254c0.226-0.534,0.598-0.957,0.971-1.393c0.224-0.262-0.06-0.683-0.38-0.492   C65.496,32.984,65.135,33.58,64.917,34.25z"/><path d="M57.858,21.334c2.347,1.169,3.472,3.216,5.075,5.17c0.243,0.296,0.7-0.084,0.518-0.4c-1.2-2.085-2.919-4.609-5.384-5.267   C57.776,20.76,57.577,21.194,57.858,21.334z"/><path d="M65.293,28.753c-0.023-0.278-0.109-0.512-0.235-0.759c-0.15-0.296-0.553-0.076-0.502,0.212   c0.044,0.248,0.108,0.468,0.243,0.681C64.93,29.095,65.315,29.03,65.293,28.753z"/><path d="M31.399,10.55c0.079-1.411-0.729-2.579-1.988-3.183c-0.386-0.186-0.695,0.334-0.336,0.575   c0.969,0.65,1.539,1.536,1.746,2.687C30.883,10.971,31.382,10.865,31.399,10.55z"/><path d="M31.54,12.888c0.116-0.339,0.163-0.678,0.238-1.026c0.073-0.338-0.411-0.473-0.517-0.143   c-0.117,0.363-0.19,0.723-0.184,1.106C31.08,13.1,31.454,13.137,31.54,12.888z"/><path d="M53.996,67.269c1.06,0.19,2.029,0.625,3.075,0.846c1.082,0.229,2.057-0.258,2.936-0.838c0.322-0.212,0.044-0.681-0.3-0.513   c-1.037,0.506-2.004,0.71-3.135,0.429c-0.847-0.21-1.62-0.485-2.507-0.431C53.789,66.778,53.695,67.215,53.996,67.269z"/><path d="M60.684,66.706c0.138-0.017,0.276-0.034,0.414-0.052c0.328-0.041,0.328-0.47,0-0.511c-0.138-0.017-0.276-0.034-0.414-0.052   C60.289,66.042,60.289,66.755,60.684,66.706z"/><path d="M39.379,68.997c-0.615-0.079-1.243-0.167-1.862-0.207c-0.286-0.018-0.42,0.431-0.15,0.554   c0.647,0.294,1.396,0.362,2.091,0.237C39.819,69.516,39.681,69.036,39.379,68.997z"/><path d="M42.009,69.652c1.344-0.486,2.557-1.368,3.733-2.155c0.28-0.187,0.108-0.705-0.242-0.573   c-1.387,0.523-2.538,1.472-3.693,2.383C41.646,69.435,41.821,69.72,42.009,69.652z"/><path d="M49.308,62.533c0.674-0.08,1.138-0.363,1.442-0.981c0.11-0.223-0.189-0.499-0.365-0.282   c-0.288,0.354-0.708,0.614-1.149,0.73C48.946,62.076,48.998,62.57,49.308,62.533z"/><path d="M68.875,79.054c-1.534,2.019-3.847,3.339-6.064,4.466c-0.3,0.153-0.09,0.631,0.227,0.538   c2.425-0.718,5.228-2.36,6.417-4.665C69.659,78.998,69.132,78.716,68.875,79.054z"/><path d="M71.439,75.292c-0.376,0.475-0.989,1.215-0.959,1.863c0.016,0.333,0.453,0.469,0.632,0.171   c0.32-0.531,0.485-1.137,0.788-1.678C72.059,75.367,71.652,75.023,71.439,75.292z"/></g><text x="0" y="115" fill="#000000" font-size="5px" font-weight="bold" font-family="'Helvetica Neue', Helvetica, Arial-Unicode, Arial, Sans-serif">Created by Valeriy</text><text x="0" y="120" fill="#000000" font-size="5px" font-weight="bold" font-family="'Helvetica Neue', Helvetica, Arial-Unicode, Arial, Sans-serif">from the Noun Project</text></svg>